# xmcd
#
# Track frame offsets:
#	150
#	14290
#	37335
#	52010
#	64842
#	79455
#	100187
#	120337
#	142792
#	163977
#	175362
#	193120
#	211930
#	232307
#
# Disc length: 3328 seconds
#
# Revision: 0
# Processed by: cddbd v1.5.2PL0 Copyright (c) Steve Scherf et al.
# Submitted via: EasyCDDAExtractor 4.5.0.2
#
DISCID=ce0cfe0e
DTITLE=Eric Bibb - Me To You
DYEAR=1900
DGENRE=
TTITLE0=Keep my Cool
TTITLE1=Sing Your Song
TTITLE2=Catch up to your Heart
TTITLE3=Between a Woman and a Man
TTITLE4=Talk to Me
TTITLE5=You're the One
TTITLE6=Something much Greater
TTITLE7=Strong Love
TTITLE8=Looking through the Window
TTITLE9=Gonna Walk this Road
TTITLE10=A Better Man
TTITLE11=INeed a Vacation
TTITLE12=I'll be your Car
TTITLE13=Me to You
EXTD=
EXTT0=
EXTT1=
EXTT2=
EXTT3=
EXTT4=
EXTT5=
EXTT6=
EXTT7=
EXTT8=
EXTT9=
EXTT10=
EXTT11=
EXTT12=
EXTT13=
PLAYORDER=
